# xmcd
#
# Track frame offsets:
#	150
#	36455
#	52425
#	72190
#	95235
#	114277
#	139232
#	157310
#	175885
#	190865
#	209637
#	232055
#	239347
#	254517
#	286257
#	300105
#
# Disc length: 4269 seconds
#
# Revision: 2
# Processed by: cddbd v1.5.1PL0 Copyright (c) Steve Scherf et al.
# Submitted via: EasyCDDAExtractor 4.6.9.1
#
DISCID=fb10ab10
DTITLE=Julie Driscoll, Brian Auger and The Trinity - Season Of The Witch
DYEAR=1974
DGENRE=Jazz
TTITLE0=Season Of The Witch
TTITLE1=This Wheel's On Fire
TTITLE2=Light My Fire
TTITLE3=Day In The Life
TTITLE4=Finally Found You Out
TTITLE5=Tropic Of Capricorn
TTITLE6=Save Me
TTITLE7=Tramp
TTITLE8=Black Cat
TTITLE9=Ellis Island
TTITLE10=Bumpin' On Sunset
TTITLE11=A Word About Colour
TTITLE12=Indian Rope Man
TTITLE13=When I Was Young
TTITLE14=Flash Failures (Let The Sunshine In)
TTITLE15=I've Got Life
EXTD=
EXTT0=
EXTT1=
EXTT2=
EXTT3=
EXTT4=
EXTT5=
EXTT6=
EXTT7=
EXTT8=
EXTT9=
EXTT10=
EXTT11=
EXTT12=
EXTT13=
EXTT14=
EXTT15=
PLAYORDER=
